<?xml version="1.0"?>
<svg id="Camada_2" data-name="Camada 2" xmlns="http://www.w3.org/2000/svg" viewBox="0 0 174.91 49.66">
  <defs></defs>
  <g id="Camada_1-2" data-name="Camada 1">
    <g>
      <g>
        <polygon class="cls-1" points="21.05 26.14 21.05 26.14 21.05 33.33 6.33 33.33 4.36 36.71 .08 44.04 0 44.17 21.05 44.17 33.91 22.16 33.91 4.13 29.3 12.02 21.05 26.14"></polygon>
        <polygon class="cls-1" points="9.51 16.16 3.68 26.14 18.78 26.14 18.78 16.16 9.51 16.16"></polygon>
      </g>
      <g>
        <polygon class="cls-1" points="46.78 18.19 46.78 18.19 46.78 10.99 61.49 10.99 63.47 7.62 67.75 .29 67.83 .16 46.78 .16 33.91 22.16 33.91 40.2 38.53 32.31 46.78 18.19"></polygon>
        <polygon class="cls-1" points="58.32 28.17 64.15 18.19 49.04 18.19 49.04 28.17 58.32 28.17"></polygon>
      </g>
      <g>
        <path class="cls-1" d="M76.46,0h1.64l4.44,11.23h.04l4.34-11.23h1.69v12.86h-1.17V1.65h-.04s-.34,1.03-.61,1.75l-3.72,9.46h-1.06l-3.76-9.46c-.27-.67-.63-1.75-.63-1.75h-.04v11.21h-1.12V0Z"></path>
        <path class="cls-1" d="M90.17,10.49c0-2.21,1.73-2.66,3.83-2.91,1.83-.22,2.5-.32,2.5-1.26v-.18c0-1.26-.79-1.87-2.23-1.87-1.66,0-2.52.68-2.61,2.07h-1.1c.13-1.8,1.31-2.97,3.71-2.97,2.03,0,3.29.85,3.29,2.88v5.06c0,.56.22.79.61.81.13,0,.25-.04.41-.07h.05v.81c-.16.07-.4.14-.75.14-.81,0-1.31-.41-1.37-1.31v-.2h-.05c-.52.74-1.47,1.6-3.26,1.6s-3.04-.86-3.04-2.59ZM96.52,9.5v-1.67c-.59.32-1.51.49-2.41.61-1.57.22-2.77.45-2.77,2.05,0,1.29.97,1.69,2.07,1.69,2.03,0,3.11-1.4,3.11-2.68Z"></path>
        <path class="cls-1" d="M99.09,8.24c0-3.09,1.76-4.88,3.98-4.88,1.42,0,2.46.67,3.06,1.74h.04V0h1.12v12.86h-1.12v-1.39h-.04c-.68,1.06-1.62,1.64-3.02,1.64-2.5,0-4.01-2.02-4.01-4.88ZM106.25,8.26c0-2.28-1.1-3.96-3.11-3.96-1.83,0-2.9,1.64-2.9,3.96,0,2.18.93,3.92,2.9,3.92s3.11-1.6,3.11-3.92Z"></path>
        <path class="cls-1" d="M108.66,8.22c0-2.79,1.67-4.88,4.25-4.88,2.99,0,4.01,2.46,3.99,5.07h-7.09c.05,2.09,1.06,3.72,3.18,3.72,1.55,0,2.36-.83,2.72-2.09h1.08c-.4,1.83-1.71,3.04-3.8,3.04-2.79,0-4.33-2.09-4.33-4.88ZM115.73,7.54c-.05-1.83-.92-3.27-2.82-3.27s-2.88,1.42-3.08,3.27h5.9Z"></path>
        <path class="cls-1" d="M122.13,11.46h-.04v1.4h-1.12V0h1.12v5.16h.04c.65-1.08,1.67-1.8,3.15-1.8,2.23,0,3.83,1.78,3.83,4.88,0,2.86-1.46,4.88-3.9,4.88-1.42,0-2.36-.56-3.08-1.66ZM127.97,8.26c0-2.32-.99-3.96-2.84-3.96-2.05,0-3.13,1.75-3.13,3.96s1.08,3.92,3.15,3.92c1.91,0,2.82-1.75,2.82-3.92Z"></path>
        <path class="cls-1" d="M130.26,15.8v-.99h.05c.16.05.41.13.84.13.7,0,1.21-.31,1.55-1.26l.31-.83-3.58-9.28h1.19l2.23,6.01c.32.86.74,2.12.74,2.12h.04s.4-1.26.7-2.12l2.14-6.01h1.15l-3.83,10.27c-.63,1.67-1.37,2.1-2.57,2.1-.41,0-.67-.05-.95-.14Z"></path>
      </g>
      <g>
        <path class="cls-1" d="M76.71,20.78h18v5.75h-11.17v3.82h9.25v5.29h-9.25v8.49h-6.83v-23.36Z"></path>
        <path class="cls-1" d="M94.35,35.78c0-5.03,3.63-8.85,8.89-8.85,2.61,0,4.61.85,6.14,2.25,2.03,1.86,2.97,4.84,2.91,8.13h-11.89c.36,1.93,1.4,3.1,3.27,3.1,1.08,0,1.86-.42,2.32-1.24h5.98c-.36,1.5-1.54,2.97-3.17,4.02-1.54.98-3.2,1.4-5.32,1.4-5.46,0-9.12-3.72-9.12-8.82ZM100.4,34.05h5.75c-.26-1.86-1.31-2.97-2.78-2.97-1.7,0-2.65,1.14-2.97,2.97Z"></path>
        <path class="cls-1" d="M128.13,40.06v4.15c-.46.13-1.14.2-2.06.2-1.09,0-2.15-.21-3.17-.62s-1.97-1.02-2.84-1.83l-1.37,2.19h-5.39c1.76-2.5,3.08-4.43,3.95-5.78-.81-1.5-1.43-3.21-1.88-5.11-.45-1.91-.67-3.96-.67-6.16,0-2.83.49-4.83,1.47-6.01.98-1.18,2.36-1.76,4.15-1.76s3.21.56,4.13,1.68c.92,1.12,1.39,2.86,1.39,5.21,0,1.42-.08,2.66-.24,3.74-.16,1.08-.5,2.25-1,3.53-.5,1.27-1.25,2.81-2.25,4.62,1.24,1.37,2.73,2.06,4.47,2.06.41,0,.85-.03,1.31-.1ZM120.06,33.46c.61-1.31,1.01-2.44,1.19-3.41.18-.97.28-2.14.28-3.51,0-1.18-.09-1.96-.26-2.37-.17-.4-.48-.6-.91-.6s-.69.24-.82.73c-.13.49-.2,1.42-.2,2.79,0,2.29.24,4.41.72,6.37Z"></path>
        <path class="cls-1" d="M129.5,20.78h6.18v4.67h-6.18v-4.67ZM129.5,27.48h6.18v16.66h-6.18v-16.66Z"></path>
        <path class="cls-1" d="M137.89,27.48h5.88v1.96h.1c1.21-1.57,2.91-2.48,5.2-2.48,4.47,0,7.06,3.99,7.06,8.82,0,5.46-2.88,8.92-7.32,8.92-1.99,0-3.53-.75-4.64-2.12h-.1v7.09h-6.18v-22.18ZM149.85,36.04c0-2.55-1.04-4.15-2.88-4.15s-3.13,1.76-3.13,4.15,1.24,4.12,3.13,4.12,2.88-1.57,2.88-4.12Z"></path>
        <path class="cls-1" d="M156.97,35.78c0-5.03,3.62-8.85,8.88-8.85,2.61,0,4.61.85,6.14,2.25,2.03,1.86,2.97,4.84,2.91,8.13h-11.89c.36,1.93,1.4,3.1,3.27,3.1,1.08,0,1.86-.42,2.32-1.24h5.98c-.36,1.5-1.54,2.97-3.17,4.02-1.54.98-3.2,1.4-5.33,1.4-5.46,0-9.11-3.72-9.11-8.82ZM163.01,34.05h5.75c-.26-1.86-1.31-2.97-2.78-2.97-1.7,0-2.65,1.14-2.97,2.97Z"></path>
      </g>
    </g>
  </g>
</svg>