<?xml version="1.0"?>
<svg xmlns="http://www.w3.org/2000/svg" viewBox="0 0 68 49.66"><defs></defs><g><g>
        <polygon class="cls-1" points="21.05 26.14 21.05 26.14 21.05 33.33 6.33 33.33 4.36 36.71 .08 44.04 0 44.17 21.05 44.17 33.91 22.16 33.91 4.13 29.3 12.02 21.05 26.14"></polygon>
        <polygon class="cls-1" points="9.51 16.16 3.68 26.14 18.78 26.14 18.78 16.16 9.51 16.16"></polygon>
      </g>
<g>
        <polygon class="cls-1" points="46.78 18.19 46.78 18.19 46.78 10.99 61.49 10.99 63.47 7.62 67.75 .29 67.83 .16 46.78 .16 33.91 22.16 33.91 40.2 38.53 32.31 46.78 18.19"></polygon>
        <polygon class="cls-1" points="58.32 28.17 64.15 18.19 49.04 18.19 49.04 28.17 58.32 28.17"></polygon>
      </g></g></svg>